<mxfile host="app.diagrams.net" modified="2024-03-08T13:11:30.957Z" agent="Mozilla/5.0 (Windows NT 10.0; Win64; x64) AppleWebKit/537.36 (KHTML, like Gecko) Chrome/120.0.0.0 YaBrowser/24.1.0.0 Safari/537.36" etag="tGKhcjysT6dZuUSxCM2O" version="24.0.2" type="device">
  <diagram name="Страница — 1" id="yq38B2f3-P06zXcD6s5b">
    <mxGraphModel dx="2367" dy="921" grid="1" gridSize="10" guides="1" tooltips="1" connect="1" arrows="1" fold="1" page="1" pageScale="1" pageWidth="827" pageHeight="1169" math="0" shadow="0">
      <root>
        <mxCell id="0" />
        <mxCell id="1" parent="0" />
        <mxCell id="Zqv4LFuDW_x2M32jIlWj-224" style="rounded=0;orthogonalLoop=1;jettySize=auto;html=1;exitX=1;exitY=0;exitDx=0;exitDy=0;entryX=0.015;entryY=0.657;entryDx=0;entryDy=0;dashed=1;entryPerimeter=0;" edge="1" parent="1" source="Zqv4LFuDW_x2M32jIlWj-35" target="Zqv4LFuDW_x2M32jIlWj-220">
          <mxGeometry relative="1" as="geometry" />
        </mxCell>
        <mxCell id="Zqv4LFuDW_x2M32jIlWj-679" value="&amp;lt;&amp;lt;extend&amp;gt;&amp;gt;" style="edgeLabel;html=1;align=center;verticalAlign=middle;resizable=0;points=[];" vertex="1" connectable="0" parent="Zqv4LFuDW_x2M32jIlWj-224">
          <mxGeometry x="-0.2023" y="-1" relative="1" as="geometry">
            <mxPoint as="offset" />
          </mxGeometry>
        </mxCell>
        <mxCell id="Zqv4LFuDW_x2M32jIlWj-35" value="Управление курсами" style="ellipse;whiteSpace=wrap;html=1;" vertex="1" parent="1">
          <mxGeometry x="-570" y="395" width="140" height="70" as="geometry" />
        </mxCell>
        <mxCell id="Zqv4LFuDW_x2M32jIlWj-159" style="rounded=0;orthogonalLoop=1;jettySize=auto;html=1;entryX=0.5;entryY=1;entryDx=0;entryDy=0;" edge="1" parent="1" source="Zqv4LFuDW_x2M32jIlWj-164" target="Zqv4LFuDW_x2M32jIlWj-165">
          <mxGeometry relative="1" as="geometry" />
        </mxCell>
        <mxCell id="Zqv4LFuDW_x2M32jIlWj-221" style="rounded=0;orthogonalLoop=1;jettySize=auto;html=1;entryX=1;entryY=0.5;entryDx=0;entryDy=0;" edge="1" parent="1" source="Zqv4LFuDW_x2M32jIlWj-164" target="Zqv4LFuDW_x2M32jIlWj-220">
          <mxGeometry relative="1" as="geometry" />
        </mxCell>
        <mxCell id="Zqv4LFuDW_x2M32jIlWj-164" value="Администратор" style="shape=umlActor;verticalLabelPosition=bottom;verticalAlign=top;html=1;" vertex="1" parent="1">
          <mxGeometry x="-180" y="400" width="30" height="60" as="geometry" />
        </mxCell>
        <mxCell id="Zqv4LFuDW_x2M32jIlWj-165" value="Выйти из учётной записи" style="ellipse;whiteSpace=wrap;html=1;" vertex="1" parent="1">
          <mxGeometry x="-240" y="170" width="140" height="70" as="geometry" />
        </mxCell>
        <mxCell id="Zqv4LFuDW_x2M32jIlWj-220" value="Возможности администратора" style="ellipse;whiteSpace=wrap;html=1;" vertex="1" parent="1">
          <mxGeometry x="-380" y="330" width="140" height="70" as="geometry" />
        </mxCell>
        <mxCell id="Zqv4LFuDW_x2M32jIlWj-226" style="rounded=0;orthogonalLoop=1;jettySize=auto;html=1;exitX=1;exitY=0.5;exitDx=0;exitDy=0;entryX=0;entryY=0.5;entryDx=0;entryDy=0;dashed=1;" edge="1" parent="1" source="Zqv4LFuDW_x2M32jIlWj-225" target="Zqv4LFuDW_x2M32jIlWj-35">
          <mxGeometry relative="1" as="geometry" />
        </mxCell>
        <mxCell id="Zqv4LFuDW_x2M32jIlWj-675" value="&amp;lt;&amp;lt;extend&amp;gt;&amp;gt;" style="edgeLabel;html=1;align=center;verticalAlign=middle;resizable=0;points=[];" vertex="1" connectable="0" parent="Zqv4LFuDW_x2M32jIlWj-226">
          <mxGeometry x="-0.1407" y="-2" relative="1" as="geometry">
            <mxPoint as="offset" />
          </mxGeometry>
        </mxCell>
        <mxCell id="Zqv4LFuDW_x2M32jIlWj-225" value="Редактирование курсов пользователей" style="ellipse;whiteSpace=wrap;html=1;" vertex="1" parent="1">
          <mxGeometry x="-800" y="395" width="140" height="70" as="geometry" />
        </mxCell>
        <mxCell id="Zqv4LFuDW_x2M32jIlWj-229" style="rounded=0;orthogonalLoop=1;jettySize=auto;html=1;exitX=0.5;exitY=0;exitDx=0;exitDy=0;entryX=0;entryY=1;entryDx=0;entryDy=0;dashed=1;" edge="1" parent="1" source="Zqv4LFuDW_x2M32jIlWj-228" target="Zqv4LFuDW_x2M32jIlWj-35">
          <mxGeometry relative="1" as="geometry" />
        </mxCell>
        <mxCell id="Zqv4LFuDW_x2M32jIlWj-674" value="&amp;lt;&amp;lt;extend&amp;gt;&amp;gt;" style="edgeLabel;html=1;align=center;verticalAlign=middle;resizable=0;points=[];" vertex="1" connectable="0" parent="Zqv4LFuDW_x2M32jIlWj-229">
          <mxGeometry x="-0.0654" relative="1" as="geometry">
            <mxPoint as="offset" />
          </mxGeometry>
        </mxCell>
        <mxCell id="Zqv4LFuDW_x2M32jIlWj-228" value="Рассмотрение заявки на добавление курса" style="ellipse;whiteSpace=wrap;html=1;" vertex="1" parent="1">
          <mxGeometry x="-720" y="520" width="140" height="70" as="geometry" />
        </mxCell>
        <mxCell id="Zqv4LFuDW_x2M32jIlWj-599" style="rounded=0;orthogonalLoop=1;jettySize=auto;html=1;entryX=0;entryY=0.5;entryDx=0;entryDy=0;" edge="1" parent="1" target="Zqv4LFuDW_x2M32jIlWj-602" source="Zqv4LFuDW_x2M32jIlWj-164">
          <mxGeometry relative="1" as="geometry">
            <mxPoint x="-155" y="427" as="sourcePoint" />
          </mxGeometry>
        </mxCell>
        <mxCell id="Zqv4LFuDW_x2M32jIlWj-601" style="rounded=0;orthogonalLoop=1;jettySize=auto;html=1;entryX=0;entryY=0;entryDx=0;entryDy=0;" edge="1" parent="1" target="Zqv4LFuDW_x2M32jIlWj-604" source="Zqv4LFuDW_x2M32jIlWj-164">
          <mxGeometry relative="1" as="geometry">
            <mxPoint x="-155" y="500" as="sourcePoint" />
          </mxGeometry>
        </mxCell>
        <mxCell id="Zqv4LFuDW_x2M32jIlWj-602" value="Настроить приложение" style="ellipse;whiteSpace=wrap;html=1;" vertex="1" parent="1">
          <mxGeometry x="-80" y="270" width="140" height="70" as="geometry" />
        </mxCell>
        <mxCell id="Zqv4LFuDW_x2M32jIlWj-604" value="Взаимодействие с курсами" style="ellipse;whiteSpace=wrap;html=1;" vertex="1" parent="1">
          <mxGeometry x="-60" y="500" width="140" height="70" as="geometry" />
        </mxCell>
        <mxCell id="Zqv4LFuDW_x2M32jIlWj-605" value="&amp;lt;&amp;lt;extend&amp;gt;&amp;gt;" style="rounded=0;orthogonalLoop=1;jettySize=auto;html=1;exitX=0.5;exitY=0;exitDx=0;exitDy=0;dashed=1;entryX=0;entryY=1;entryDx=0;entryDy=0;" edge="1" parent="1" source="Zqv4LFuDW_x2M32jIlWj-608" target="Zqv4LFuDW_x2M32jIlWj-604">
          <mxGeometry relative="1" as="geometry">
            <mxPoint x="-150" y="650" as="targetPoint" />
          </mxGeometry>
        </mxCell>
        <mxCell id="Zqv4LFuDW_x2M32jIlWj-606" style="rounded=0;orthogonalLoop=1;jettySize=auto;html=1;exitX=0.5;exitY=1;exitDx=0;exitDy=0;entryX=0;entryY=0;entryDx=0;entryDy=0;dashed=1;" edge="1" parent="1" source="Zqv4LFuDW_x2M32jIlWj-608" target="Zqv4LFuDW_x2M32jIlWj-640">
          <mxGeometry relative="1" as="geometry" />
        </mxCell>
        <mxCell id="Zqv4LFuDW_x2M32jIlWj-607" value="&amp;lt;&amp;lt;include&amp;gt;&amp;gt;" style="edgeLabel;html=1;align=center;verticalAlign=middle;resizable=0;points=[];" vertex="1" connectable="0" parent="Zqv4LFuDW_x2M32jIlWj-606">
          <mxGeometry x="-0.0477" y="-3" relative="1" as="geometry">
            <mxPoint as="offset" />
          </mxGeometry>
        </mxCell>
        <mxCell id="Zqv4LFuDW_x2M32jIlWj-608" value="Создать курс" style="ellipse;whiteSpace=wrap;html=1;" vertex="1" parent="1">
          <mxGeometry x="-220" y="650" width="140" height="70" as="geometry" />
        </mxCell>
        <mxCell id="Zqv4LFuDW_x2M32jIlWj-609" style="rounded=0;orthogonalLoop=1;jettySize=auto;html=1;exitX=0;exitY=0;exitDx=0;exitDy=0;entryX=0.5;entryY=1;entryDx=0;entryDy=0;dashed=1;" edge="1" parent="1" source="Zqv4LFuDW_x2M32jIlWj-610" target="Zqv4LFuDW_x2M32jIlWj-616">
          <mxGeometry relative="1" as="geometry" />
        </mxCell>
        <mxCell id="Zqv4LFuDW_x2M32jIlWj-661" value="&amp;lt;&amp;lt;extend&amp;gt;&amp;gt;" style="edgeLabel;html=1;align=center;verticalAlign=middle;resizable=0;points=[];" vertex="1" connectable="0" parent="Zqv4LFuDW_x2M32jIlWj-609">
          <mxGeometry x="-0.2623" y="-1" relative="1" as="geometry">
            <mxPoint as="offset" />
          </mxGeometry>
        </mxCell>
        <mxCell id="Zqv4LFuDW_x2M32jIlWj-610" value="Добавить курс в избранное" style="ellipse;whiteSpace=wrap;html=1;" vertex="1" parent="1">
          <mxGeometry x="290" y="820" width="140" height="70" as="geometry" />
        </mxCell>
        <mxCell id="Zqv4LFuDW_x2M32jIlWj-615" style="rounded=0;orthogonalLoop=1;jettySize=auto;html=1;exitX=0;exitY=0;exitDx=0;exitDy=0;entryX=1;entryY=0.5;entryDx=0;entryDy=0;dashed=1;" edge="1" parent="1" source="Zqv4LFuDW_x2M32jIlWj-616" target="Zqv4LFuDW_x2M32jIlWj-604">
          <mxGeometry relative="1" as="geometry" />
        </mxCell>
        <mxCell id="Zqv4LFuDW_x2M32jIlWj-667" value="&amp;lt;&amp;lt;extend&amp;gt;&amp;gt;" style="edgeLabel;html=1;align=center;verticalAlign=middle;resizable=0;points=[];" vertex="1" connectable="0" parent="Zqv4LFuDW_x2M32jIlWj-615">
          <mxGeometry x="-0.0765" y="-1" relative="1" as="geometry">
            <mxPoint as="offset" />
          </mxGeometry>
        </mxCell>
        <mxCell id="Zqv4LFuDW_x2M32jIlWj-616" value="Просмотр главного окна курса" style="ellipse;whiteSpace=wrap;html=1;" vertex="1" parent="1">
          <mxGeometry x="140" y="590" width="140" height="70" as="geometry" />
        </mxCell>
        <mxCell id="Zqv4LFuDW_x2M32jIlWj-617" style="rounded=0;orthogonalLoop=1;jettySize=auto;html=1;exitX=0.5;exitY=0;exitDx=0;exitDy=0;entryX=0;entryY=1;entryDx=0;entryDy=0;dashed=1;" edge="1" parent="1" source="Zqv4LFuDW_x2M32jIlWj-618" target="Zqv4LFuDW_x2M32jIlWj-616">
          <mxGeometry relative="1" as="geometry" />
        </mxCell>
        <mxCell id="Zqv4LFuDW_x2M32jIlWj-662" value="&amp;lt;&amp;lt;extend&amp;gt;&amp;gt;" style="edgeLabel;html=1;align=center;verticalAlign=middle;resizable=0;points=[];" vertex="1" connectable="0" parent="Zqv4LFuDW_x2M32jIlWj-617">
          <mxGeometry x="-0.1725" y="-2" relative="1" as="geometry">
            <mxPoint y="1" as="offset" />
          </mxGeometry>
        </mxCell>
        <mxCell id="Zqv4LFuDW_x2M32jIlWj-618" value="Оформить подписку на курс" style="ellipse;whiteSpace=wrap;html=1;" vertex="1" parent="1">
          <mxGeometry x="110" y="830" width="140" height="70" as="geometry" />
        </mxCell>
        <mxCell id="Zqv4LFuDW_x2M32jIlWj-624" style="rounded=0;orthogonalLoop=1;jettySize=auto;html=1;exitX=0;exitY=0;exitDx=0;exitDy=0;entryX=1;entryY=1;entryDx=0;entryDy=0;dashed=1;" edge="1" parent="1" source="Zqv4LFuDW_x2M32jIlWj-625" target="Zqv4LFuDW_x2M32jIlWj-616">
          <mxGeometry relative="1" as="geometry" />
        </mxCell>
        <mxCell id="Zqv4LFuDW_x2M32jIlWj-660" value="&amp;lt;&amp;lt;extend&amp;gt;&amp;gt;" style="edgeLabel;html=1;align=center;verticalAlign=middle;resizable=0;points=[];" vertex="1" connectable="0" parent="Zqv4LFuDW_x2M32jIlWj-624">
          <mxGeometry x="0.1021" y="2" relative="1" as="geometry">
            <mxPoint as="offset" />
          </mxGeometry>
        </mxCell>
        <mxCell id="Zqv4LFuDW_x2M32jIlWj-625" value="Изучить бесплатный первый раздел" style="ellipse;whiteSpace=wrap;html=1;" vertex="1" parent="1">
          <mxGeometry x="400" y="730" width="140" height="70" as="geometry" />
        </mxCell>
        <mxCell id="Zqv4LFuDW_x2M32jIlWj-634" style="rounded=0;orthogonalLoop=1;jettySize=auto;html=1;exitX=0;exitY=0.5;exitDx=0;exitDy=0;entryX=1;entryY=0.5;entryDx=0;entryDy=0;dashed=1;" edge="1" parent="1" source="Zqv4LFuDW_x2M32jIlWj-635" target="Zqv4LFuDW_x2M32jIlWj-602">
          <mxGeometry relative="1" as="geometry" />
        </mxCell>
        <mxCell id="Zqv4LFuDW_x2M32jIlWj-653" value="&amp;lt;&amp;lt;extend&amp;gt;&amp;gt;" style="edgeLabel;html=1;align=center;verticalAlign=middle;resizable=0;points=[];" vertex="1" connectable="0" parent="Zqv4LFuDW_x2M32jIlWj-634">
          <mxGeometry x="-0.0222" y="4" relative="1" as="geometry">
            <mxPoint x="-1" as="offset" />
          </mxGeometry>
        </mxCell>
        <mxCell id="Zqv4LFuDW_x2M32jIlWj-635" value="Включение или выключение уведомлений" style="ellipse;whiteSpace=wrap;html=1;" vertex="1" parent="1">
          <mxGeometry x="185" y="270" width="140" height="70" as="geometry" />
        </mxCell>
        <mxCell id="Zqv4LFuDW_x2M32jIlWj-640" value="Взаимодействие с редактором курса" style="ellipse;whiteSpace=wrap;html=1;" vertex="1" parent="1">
          <mxGeometry x="-130" y="840" width="140" height="70" as="geometry" />
        </mxCell>
        <mxCell id="Zqv4LFuDW_x2M32jIlWj-642" style="rounded=0;orthogonalLoop=1;jettySize=auto;html=1;exitX=0;exitY=0.5;exitDx=0;exitDy=0;entryX=1;entryY=0.5;entryDx=0;entryDy=0;dashed=1;" edge="1" parent="1" source="Zqv4LFuDW_x2M32jIlWj-643" target="Zqv4LFuDW_x2M32jIlWj-616">
          <mxGeometry relative="1" as="geometry" />
        </mxCell>
        <mxCell id="Zqv4LFuDW_x2M32jIlWj-659" value="&amp;lt;&amp;lt;extend&amp;gt;&amp;gt;" style="edgeLabel;html=1;align=center;verticalAlign=middle;resizable=0;points=[];" vertex="1" connectable="0" parent="Zqv4LFuDW_x2M32jIlWj-642">
          <mxGeometry x="0.1674" y="-2" relative="1" as="geometry">
            <mxPoint as="offset" />
          </mxGeometry>
        </mxCell>
        <mxCell id="Zqv4LFuDW_x2M32jIlWj-643" value="Поставить оценку" style="ellipse;whiteSpace=wrap;html=1;" vertex="1" parent="1">
          <mxGeometry x="440" y="600" width="140" height="70" as="geometry" />
        </mxCell>
        <mxCell id="Zqv4LFuDW_x2M32jIlWj-645" value="Просмотр списка собственных курсов" style="ellipse;whiteSpace=wrap;html=1;" vertex="1" parent="1">
          <mxGeometry x="-40" y="660" width="140" height="70" as="geometry" />
        </mxCell>
        <mxCell id="Zqv4LFuDW_x2M32jIlWj-646" style="rounded=0;orthogonalLoop=1;jettySize=auto;html=1;exitX=0.5;exitY=0;exitDx=0;exitDy=0;entryX=0.5;entryY=1;entryDx=0;entryDy=0;dashed=1;" edge="1" parent="1" source="Zqv4LFuDW_x2M32jIlWj-645" target="Zqv4LFuDW_x2M32jIlWj-604">
          <mxGeometry relative="1" as="geometry" />
        </mxCell>
        <mxCell id="Zqv4LFuDW_x2M32jIlWj-664" value="&amp;lt;&amp;lt;extend&amp;gt;&amp;gt;" style="edgeLabel;html=1;align=center;verticalAlign=middle;resizable=0;points=[];" vertex="1" connectable="0" parent="Zqv4LFuDW_x2M32jIlWj-646">
          <mxGeometry x="-0.0446" y="-1" relative="1" as="geometry">
            <mxPoint as="offset" />
          </mxGeometry>
        </mxCell>
        <mxCell id="Zqv4LFuDW_x2M32jIlWj-647" style="rounded=0;orthogonalLoop=1;jettySize=auto;html=1;exitX=1;exitY=0;exitDx=0;exitDy=0;entryX=0.5;entryY=1;entryDx=0;entryDy=0;dashed=1;" edge="1" parent="1" source="Zqv4LFuDW_x2M32jIlWj-640" target="Zqv4LFuDW_x2M32jIlWj-645">
          <mxGeometry relative="1" as="geometry" />
        </mxCell>
        <mxCell id="Zqv4LFuDW_x2M32jIlWj-663" value="&amp;lt;&amp;lt;extend&amp;gt;&amp;gt;" style="edgeLabel;html=1;align=center;verticalAlign=middle;resizable=0;points=[];" vertex="1" connectable="0" parent="Zqv4LFuDW_x2M32jIlWj-647">
          <mxGeometry x="-0.0473" y="-3" relative="1" as="geometry">
            <mxPoint as="offset" />
          </mxGeometry>
        </mxCell>
      </root>
    </mxGraphModel>
  </diagram>
</mxfile>
